# xmcd
#
# Track frame offsets: 
#        150
#        43859
#        58603
#        101400
#        132900
#        148875
#        189525
#        207900
#
# Disc length: 3057 seconds
#
# Revision: 8
# Processed by: cddbd v1.5.2PL0 Copyright (c) Steve Scherf et al.
# Submitted via: ExactAudioCopy v1.3
#
DISCID=780bef08
DTITLE=Yes - The Yes Album (Definitive Edition CD)
DYEAR=1971
DGENRE=Progressive Rock
TTITLE0=Yours Is No Disgrace
TTITLE1=Clap
TTITLE2=Starship Trooper: a. Life Seeker b. Disillusion c. Würm
TTITLE3=I've Seen All Good People: a. Your Move b. All Good People
TTITLE4=A Venture
TTITLE5=Perpetual Change
TTITLE6=Clap (Studio Version)
TTITLE7=A Venture (Extended Mix)
EXTD=
EXTT0=
EXTT1=
EXTT2=
EXTT3=
EXTT4=
EXTT5=
EXTT6=
EXTT7=
PLAYORDER=
